<svg width="32" height="32" viewBox="0 0 32 32" fill="none" xmlns="http://www.w3.org/2000/svg">
<path d="M7.71 9.4H22.924C24.302 9.4 25.297 10.67 24.919 11.948L23.265 17.548C23.01 18.408 22.196 19 21.27 19H12.112C11.185 19 10.37 18.407 10.116 17.548L7.71 9.4ZM7.71 9.4L7 7M14.5 14H18.5M20.5 25C20.8978 25 21.2794 24.842 21.5607 24.5607C21.842 24.2794 22 23.8978 22 23.5C22 23.1022 21.842 22.7206 21.5607 22.4393C21.2794 22.158 20.8978 22 20.5 22C20.1022 22 19.7206 22.158 19.4393 22.4393C19.158 22.7206 19 23.1022 19 23.5C19 23.8978 19.158 24.2794 19.4393 24.5607C19.7206 24.842 20.1022 25 20.5 25ZM12.5 25C12.8978 25 13.2794 24.842 13.5607 24.5607C13.842 24.2794 14 23.8978 14 23.5C14 23.1022 13.842 22.7206 13.5607 22.4393C13.2794 22.158 12.8978 22 12.5 22C12.1022 22 11.7206 22.158 11.4393 22.4393C11.158 22.7206 11 23.1022 11 23.5C11 23.8978 11.158 24.2794 11.4393 24.5607C11.7206 24.842 12.1022 25 12.5 25Z" stroke="white" stroke-width="1.6" stroke-linecap="round" stroke-linejoin="round"/>
</svg>
