<svg width="24" height="25" viewBox="0 0 24 25" fill="none" xmlns="http://www.w3.org/2000/svg">
<circle cx="12" cy="12.5" r="9" fill="#B9C1C9"/>
<path d="M9 9.61064C9.17507 9.07498 9.49603 8.59791 9.9272 8.23204C10.3584 7.86616 10.8828 7.62596 11.443 7.53771C12.0032 7.44947 12.5774 7.51681 13.1014 7.73221C13.6255 7.9476 14.0788 8.30278 14.4123 8.75833C14.7457 9.21388 14.9459 9.75193 14.9905 10.3134C15.0351 10.8748 14.9221 11.4374 14.6646 11.9392C14.4072 12.441 14.0154 12.8626 13.5319 13.1569C13.0483 13.4512 12.4922 13.6069 11.925 13.6069V15.37M11.9633 17.4235V17.4998L11.8867 17.5V17.4235H11.9633Z" stroke="white" stroke-width="1.4" stroke-linecap="round" stroke-linejoin="round"/>
</svg>
